# xmcd
#
# Track frame offsets: 
#        150
#        21641
#        47473
#        70519
#        99392
#        120703
#        146442
#        177628
#        200725
#
# Disc length: 2954 seconds
#
# Revision: 2
# Processed by: cddbd v1.5.2PL0 Copyright (c) Steve Scherf et al.
# Submitted via: ExactAudioCopyFreeDBPlugin 1.0
#
DISCID=800b8809
DTITLE=Bill Evans Trio - Live At Art D'Lugoff's Top Of The Gate (First
DTITLE=Set)
DYEAR=1968
DGENRE=Jazz
TTITLE0=Emily
TTITLE1=Witchcraft
TTITLE2=Yesterdays
TTITLE3='Round Midnight
TTITLE4=My Funny Valentine
TTITLE5=California Here I Come
TTITLE6=Gone With The Wind
TTITLE7=Alfie
TTITLE8=Turn Out The Stars
EXTD=
EXTT0=
EXTT1=
EXTT2=
EXTT3=
EXTT4=
EXTT5=
EXTT6=
EXTT7=
EXTT8=
PLAYORDER=
